<?xml version="1.0" encoding="utf-8" ?>
<svg height="300px" width="300px" fill="#ffffff" xmlns="http://www.w3.org/2000/svg" viewBox="0 0 84.6 84.6" x="0px" y="0px">
    <title>mine</title>
    <path id="favicon" d="M82.1,39.8H70.88a28.53,28.53,0,0,0-6.6-16l2.54-2.53a2.5,2.5,0,1,0-3.54-3.53l-2.53,2.53a28.53,28.53,0,0,0-16-6.6V2.5a2.5,2.5,0,0,0-5,0V13.71a28.47,28.47,0,0,0-15.94,6.61l-2.53-2.53a2.5,2.5,0,0,0-3.54,3.53l2.54,2.54A28.47,28.47,0,0,0,13.72,39.8H2.5a2.5,2.5,0,0,0,0,5H13.72a28.68,28.68,0,0,0,6.6,15.94l-2.53,2.53a2.52,2.52,0,0,0,0,3.54,2.51,2.51,0,0,0,3.54,0l2.53-2.53a28.68,28.68,0,0,0,15.94,6.6V82.1a2.5,2.5,0,0,0,5,0V70.88a28.47,28.47,0,0,0,15.94-6.61l2.54,2.54a2.49,2.49,0,0,0,1.77.73,2.45,2.45,0,0,0,1.76-.73,2.5,2.5,0,0,0,0-3.54l-2.53-2.53A28.47,28.47,0,0,0,70.89,44.8H82.1a2.5,2.5,0,0,0,0-5Zm-42.75-4a5.92,5.92,0,0,1-3.57,3.5,5.81,5.81,0,0,1-2,.37,6,6,0,0,1-6-6,5.83,5.83,0,0,1,.37-2A5.91,5.91,0,0,1,31.57,28a5.76,5.76,0,0,1,2.16-.41,6,6,0,0,1,6,6A5.76,5.76,0,0,1,39.35,35.81Z"></path>
</svg>
