<svg xmlns="http://www.w3.org/2000/svg" height="144" width="144" viewBox="0 0 300 300">
	<title>mine</title>
	<g fill="#ffffff" stroke="#ffffff" stroke-width="1">
		<circle cx="150" cy="150" r="110" />
		<g>
			<rect x="0" y="130" width="300" height="40" rx="20" ry="20" />
			<rect x="130" y="0" width="40" height="300" rx="20" ry="20" />
		</g>
		<g transform = "rotate(45 150 150)">
			<rect x="10" y="130" width="280" height="40" rx="20" ry="20" />
			<rect x="130" y="10" width="40" height="280" rx="20" ry="20" />
		</g>
	</g>
	<g fill="#000000" stroke="#000000" stroke-width="1">
		<circle cx="150" cy="150" r="100" />
		<g>
			<rect x="10" y="140" width="280" height="20" rx="10" ry="10" />
			<rect x="140" y="10" width="20" height="280" rx="10" ry="10" />
		</g>
		<g transform = "rotate(45 150 150)">
			<rect x="20" y="140" width="260" height="20" rx="10" ry="10" />
			<rect x="140" y="20" width="20" height="260" rx="10" ry="10" />
		</g>
		<circle cx="120" cy="120" r="20" fill="#ffffff" stroke="#ffffff" />
	</g>
</svg>
